<svg xmlns="http://www.w3.org/2000/svg" viewBox="0 0 100 100" width="100" height="100">
  <!-- Background Circle for profile -->
  <circle cx="50" cy="50" r="45" fill="url(#gradient1)" />
  
  <!-- Head -->
  <circle cx="50" cy="35" r="20" fill="#f2d1a2" />
  
  <!-- Body -->
  <path d="M30,60 C30,80 70,80 70,60" fill="#f2d1a2" />
  <rect x="30" y="60" width="40" height="15" rx="8" ry="8" fill="#f2d1a2" />
  
  <!-- Hair -->
  <path d="M50,22 Q40,10 30,22" fill="#6a4e23" />
  <path d="M50,22 Q60,10 70,22" fill="#6a4e23" />
  
  <!-- Eyes -->
  <circle cx="43" cy="33" r="3" fill="#fff" />
  <circle cx="57" cy="33" r="3" fill="#fff" />
  
  <!-- Pupils -->
  <circle cx="43" cy="33" r="1.5" fill="#000" />
  <circle cx="57" cy="33" r="1.5" fill="#000" />
  
  <!-- Nose -->
  <circle cx="50" cy="38" r="1.5" fill="#e7c29f" />
  
  <!-- Smile -->
  <path d="M43,42 Q50,47 57,42" stroke="#6a4e23" stroke-width="1.5" fill="transparent" />
  
  <!-- Shadow for realism -->
  <ellipse cx="50" cy="60" rx="40" ry="10" fill="rgba(0,0,0,0.2)" />
  
  <!-- Gradient definition -->
  <defs>
    <linearGradient id="gradient1" x1="0%" y1="0%" x2="100%" y2="100%">
      <stop offset="0%" style="stop-color:#7bc5b1;stop-opacity:1" />
      <stop offset="100%" style="stop-color:#56b29c;stop-opacity:1" />
    </linearGradient>
  </defs>
</svg>
